<?xml version="1.0" encoding="UTF-8" ?>
<!DOCTYPE svg PUBLIC "-//W3C//DTD SVG 1.1//EN" "http://www.w3.org/Graphics/SVG/1.1/DTD/svg11.dtd">
<svg width="100pt" height="100pt" viewBox="0 0 100 100" version="1.1" xmlns="http://www.w3.org/2000/svg">
<g id="#ffffffff">
<path fill="#ffffff" opacity="1.00" d=" M 0.00 0.00 L 100.00 0.00 L 100.00 100.00 L 0.00 100.00 L 0.00 0.00 M 41.70 8.46 C 39.81 11.40 41.93 14.82 44.60 16.34 C 39.22 39.27 34.07 62.26 28.42 85.12 C 26.25 85.21 23.93 85.98 23.03 88.14 C 21.56 90.58 23.24 93.25 24.88 95.09 C 27.33 94.69 30.79 96.00 32.22 93.28 C 34.29 90.40 32.41 86.65 29.56 85.17 C 34.79 62.25 40.19 39.38 45.52 16.48 C 48.98 16.57 52.36 13.62 51.47 9.95 C 50.84 5.30 43.65 4.13 41.70 8.46 M 5.45 35.25 C 5.45 46.41 5.43 57.58 5.44 68.75 C 8.74 68.76 12.04 68.76 15.34 68.76 C 15.37 63.50 15.32 58.25 15.33 52.99 C 15.26 49.48 18.12 46.74 20.80 44.88 C 24.31 42.56 28.68 43.20 32.53 44.16 C 33.18 41.43 33.86 38.71 34.54 35.98 C 27.34 32.30 17.86 35.83 14.30 42.96 C 14.11 40.38 13.85 37.82 13.58 35.25 C 10.87 35.24 8.16 35.24 5.45 35.25 M 48.55 35.27 C 46.40 46.45 44.16 57.61 41.98 68.79 C 45.05 68.76 48.11 68.75 51.18 68.75 C 52.76 61.39 53.83 53.91 55.67 46.62 C 57.51 44.53 59.99 42.18 63.00 42.44 C 65.14 42.76 65.62 45.18 65.20 46.96 C 63.88 54.24 62.26 61.48 60.90 68.76 C 63.96 68.76 67.02 68.76 70.07 68.75 C 71.55 61.39 73.03 54.02 74.49 46.65 C 76.47 45.01 78.27 42.65 81.02 42.41 C 82.97 41.99 84.74 44.10 84.38 45.96 C 83.15 53.61 81.28 61.13 79.90 68.76 C 82.96 68.76 86.02 68.76 89.07 68.75 C 90.49 61.68 91.91 54.60 93.33 47.53 C 93.87 44.24 94.31 40.54 92.49 37.56 C 90.77 34.77 86.99 34.04 83.99 34.84 C 80.40 35.55 77.53 37.97 74.77 40.22 C 73.79 37.97 72.53 35.44 69.86 34.90 C 64.67 33.44 59.77 36.72 55.99 39.93 C 56.00 38.36 55.99 36.80 55.99 35.24 C 53.51 35.25 51.03 35.25 48.55 35.27 Z" />
</g>
<g id="#e5332aff">
<path fill="#e5332a" opacity="1.00" d=" M 41.70 8.46 C 43.65 4.13 50.84 5.30 51.47 9.95 C 52.36 13.62 48.98 16.57 45.52 16.48 C 40.19 39.38 34.79 62.25 29.56 85.17 C 32.41 86.65 34.29 90.40 32.22 93.28 C 30.79 96.00 27.33 94.69 24.88 95.09 C 23.24 93.25 21.56 90.58 23.03 88.14 C 23.93 85.98 26.25 85.21 28.42 85.12 C 34.07 62.26 39.22 39.27 44.60 16.34 C 41.93 14.82 39.81 11.40 41.70 8.46 Z" />
<path fill="#e5332a" opacity="1.00" d=" M 48.55 35.27 C 51.03 35.25 53.51 35.25 55.99 35.24 C 55.99 36.80 56.00 38.36 55.99 39.93 C 59.77 36.72 64.67 33.44 69.86 34.90 C 72.53 35.44 73.79 37.97 74.77 40.22 C 77.53 37.97 80.40 35.55 83.99 34.84 C 86.99 34.04 90.77 34.77 92.49 37.56 C 94.31 40.54 93.87 44.24 93.33 47.53 C 91.91 54.60 90.49 61.68 89.07 68.75 C 86.02 68.76 82.96 68.76 79.90 68.76 C 81.28 61.13 83.15 53.61 84.38 45.96 C 84.74 44.10 82.97 41.99 81.02 42.41 C 78.27 42.65 76.47 45.01 74.49 46.65 C 73.03 54.02 71.55 61.39 70.07 68.75 C 67.02 68.76 63.96 68.76 60.90 68.76 C 62.26 61.48 63.88 54.24 65.20 46.96 C 65.62 45.18 65.14 42.76 63.00 42.44 C 59.99 42.18 57.51 44.53 55.67 46.62 C 53.83 53.91 52.76 61.39 51.18 68.75 C 48.11 68.75 45.05 68.76 41.98 68.79 C 44.16 57.61 46.40 46.45 48.55 35.27 Z" />
</g>
<g id="#1d1d1bff">
<path fill="#1d1d1b" opacity="1.00" d=" M 5.45 35.25 C 8.16 35.24 10.87 35.24 13.58 35.25 C 13.85 37.82 14.11 40.38 14.30 42.96 C 17.86 35.83 27.34 32.30 34.54 35.98 C 33.86 38.71 33.18 41.43 32.53 44.16 C 28.68 43.20 24.31 42.56 20.80 44.88 C 18.12 46.74 15.26 49.48 15.33 52.99 C 15.32 58.25 15.37 63.50 15.34 68.76 C 12.04 68.76 8.74 68.76 5.44 68.75 C 5.43 57.58 5.45 46.41 5.45 35.25 Z" />
</g>
</svg>
