<?xml version="1.0" encoding="UTF-8" standalone="no"?>
<svg
   width="158"
   height="164"
   viewBox="0 0 158 164"
   version="1.1"
   id="svg505"
   sodipodi:docname="base.svg"
   inkscape:version="1.1.1 (3bf5ae0d25, 2021-09-20, custom)"
   xmlns:inkscape="http://www.inkscape.org/namespaces/inkscape"
   xmlns:sodipodi="http://sodipodi.sourceforge.net/DTD/sodipodi-0.dtd"
   xmlns:xlink="http://www.w3.org/1999/xlink"
   xmlns="http://www.w3.org/2000/svg"
   xmlns:svg="http://www.w3.org/2000/svg">
  <sodipodi:namedview
     id="namedview507"
     pagecolor="#ffffff"
     bordercolor="#666666"
     borderopacity="1.0"
     inkscape:pageshadow="2"
     inkscape:pageopacity="0.0"
     inkscape:pagecheckerboard="0"
     showgrid="false"
     inkscape:zoom="2.7012987"
     inkscape:cx="146.41106"
     inkscape:cy="54.973558"
     inkscape:window-width="2560"
     inkscape:window-height="1056"
     inkscape:window-x="0"
     inkscape:window-y="420"
     inkscape:window-maximized="1"
     inkscape:current-layer="g503" />
  <defs
     id="defs8">
    <path
       d="m 0.023,33.232 v -0.659 l 1.5,-0.847 43.967,-24.988 0.35,-0.2 V 7.2 L 45.42,7.439 1.455,32.423 0.024,33.232 Z m 0.925,-6.835 v -1.11 L 44.403,0.34 44.913,0.045 V 5.803 1.16 Z"
       id="a" />
    <linearGradient
       x1="-0.056529999"
       y1="0.24916001"
       x2="1.0039001"
       y2="0.24916001"
       id="c">
      <stop
         stop-color="#CA4848"
         offset="0%"
         id="stop3" />
      <stop
         stop-color="#FAB83B"
         offset="49.412%"
         id="stop5" />
    </linearGradient>
  </defs>
  <g
     fill="none"
     fill-rule="evenodd"
     id="g503">
    <g
       id="g1266"
       transform="translate(1.5000003,3.5000043)">
      <path
         fill="#bbbd46"
         d="M 152.871,106.282 88.534,62.983 2.129,113.399 l 64.337,43.3 86.405,-50.417"
         id="path10" />
      <path
         fill="#79787e"
         d="m 61.998,138.634 -12.819,7.55 -33.277,-22.25 12.71,-7.62 -11.548,-7.722 62.516,-37.485 57.553,39.143 -62.515,36.82 -12.62,-8.436"
         id="path12" />
      <path
         d="m 79.614,69.925 -64.412,38.622 11.55,7.72 -12.711,7.622 35.105,23.47 12.818,-7.55 12.62,8.438 1.079,-0.635 63.33,-37.302 -59.379,-40.385 m -0.067,2.364 55.725,37.9 -60.62,35.706 -12.62,-8.437 -12.819,7.55 -31.45,-21.027 12.711,-7.622 -11.55,-7.72 60.623,-36.35"
         fill="#e8e1da"
         id="path14" />
      <path
         fill="#828140"
         d="m 91.256,138.427 47.737,-28.117 -10.32,-7.02 v -4.92 l 18.03,11.3 -48.325,28.1 -7.121,0.657"
         id="path16" />
      <path
         fill="#5c575d"
         d="m 78.483,139.605 10e-4,-0.124 50.189,-29.243 v -4.537 l 6.6,4.488 -48.672,28.668 -8.118,0.749"
         id="path18" />
      <path
         fill="#9a9391"
         d="m 86.601,138.857 48.671,-28.668 -6.6,-4.488 v -2.41 l 10.321,7.02 -47.736,28.116 -4.656,0.43"
         id="path20" />
      <path
         fill="#f7f7f6"
         d="M 78.483,139.473 28.687,106.455 V 32.649 l 49.796,33.018 v 73.806"
         id="path22" />
      <path
         fill="#c8e0e7"
         d="M 78.483,139.513 28.687,106.495 v -5.042 l 49.796,33.019 v 5.041"
         id="path24" />
      <path
         fill="#727076"
         d="m 70.729,134.381 -0.77,-0.52 0.77,0.51 v 0.01"
         id="path26" />
      <path
         fill="#dfdfdc"
         d="m 70.723,129.326 -1.196,-0.793 v -17.728 l 0.027,-4.88 0.045,-0.025 v -6.133 l 0.398,-0.232 v -0.726 l 4.469,10.362 v 7.074 l -3.762,-2.315 0.02,15.395"
         id="path28" />
      <path
         fill="#b6c9d1"
         d="m 70.729,134.372 -0.77,-0.511 -0.507,-0.342 0.075,-0.054 v -4.932 l 1.196,0.793 0.006,5.046"
         id="path30" />
      <path
         fill="#b8c3c7"
         d="M 78.483,68.125 28.687,35.037 v -2.388 l 49.796,33.018 v 2.458"
         id="path32" />
      <path
         fill="#b8c3c7"
         d="m 78.482,139.483 50.19,-29.245 V 36.432 L 78.483,65.675 v 73.807"
         id="path34" />
      <path
         fill="#c5c4be"
         d="m 67.724,134.779 1.803,-1.314 v -27.842 l -1.803,0.916 v 28.24"
         id="path36" />
      <path
         fill="#eb906c"
         d="M 128.673,36.432 78.876,3.414 28.714,32.648 78.51,65.667 128.673,36.432"
         id="path38" />
      <path
         fill="#c8e0e7"
         d="M 78.483,75.945 28.687,42.925 v -5.04 l 49.796,33.019 v 5.041"
         id="path40" />
      <path
         fill="#4b7393"
         d="m 78.482,75.954 50.19,-29.245 v -5.042 l -50.19,29.245 v 5.042"
         id="path42" />
      <path
         fill="#4b7393"
         d="m 78.482,139.522 50.19,-29.244 v -5.042 l -50.19,29.245 v 5.041"
         id="path44" />
      <path
         stroke="#4b7393"
         stroke-width="0.855"
         d="m 78.482,139.522 50.19,-29.244 v -5.042 l -50.19,29.245 z"
         id="path46" />
      <path
         fill="#edf3f7"
         d="M 129.918,36.431 V 34.067 L 78.939,2.665 27.469,30.283 v 2.365 l 50.979,33.765 51.47,-29.983"
         id="path48" />
      <path
         fill="#c5c4be"
         d="m 78.939,2.665 -0.491,62.028 -0.05,2.333 0.05,-0.612 51.47,-29.983 V 34.067 L 78.939,2.665"
         id="path50" />
      <path
         fill="#d0cfca"
         d="M 125.745,34.067 78.733,2.806 31.641,30.283 78.654,61.545 125.744,34.067"
         id="path54" />
      <path
         fill="#c1c1bc"
         d="M 78.733,2.805 31.641,30.284 34.74,32.24 78.733,6.535 v -3.73"
         id="path56" />
      <path
         fill="#f7f7f6"
         d="M 78.733,6.535 122.646,35.84 125.745,34.067 78.733,2.806 v 3.729"
         id="path58" />
      <path
         fill="#726f78"
         d="m 38.106,112.909 -0.5,-0.5 0.5,0.418 v 0.082"
         id="path60" />
      <path
         fill="#e5e5e9"
         d="m 38.041,107.655 -0.996,-0.66 v -5.527 l 0.99,0.66 0.006,5.527"
         id="path62" />
      <path
         fill="#bcd0dc"
         d="m 38.047,112.701 -0.44,-0.292 -0.562,-0.446 v -4.968 l 0.996,0.66 0.006,5.046"
         id="path64" />
      <path
         fill="#405253"
         d="M 39.888,113.363 V 86.065 l 24.204,15.94 v 27.311 L 39.888,113.363"
         id="path66" />
      <path
         d="m 39.362,85.09 v 28.556 l 0.473,0.311 24.781,16.334 v -28.57 l -0.473,-0.31 -24.782,-16.32 m 1.051,1.95 23.154,15.247 V 128.34 L 40.412,113.08 V 87.04"
         fill="#e8e1da"
         id="path68" />
      <path
         fill="#243132"
         d="m 56.83,123.221 -10.367,-6.842 v -8.63 l 9.136,6.094 1.617,-0.918 -0.386,10.296"
         id="path70" />
      <path
         d="m 78.641,61.555 -37.536,-24.978 37.549,24.968 1.587,-0.926 0.014,0.009 -1.614,0.927 M 31.645,30.281 31.61,30.258 l 0.054,0.012 -0.02,0.011"
         fill="#ebe8e6"
         id="path72" />
      <path
         fill="#bebdb9"
         d="m 78.654,61.545 -37.549,-24.968 -9.328,-6.208 2.963,1.87 1.47,-0.858 44.03,29.238 -1.586,0.926"
         id="path74" />
      <path
         fill="#b1b1ae"
         d="m 34.74,32.239 -2.963,-1.87 -0.132,-0.088 0.019,-0.01 4.395,1.01 0.15,0.1 -1.47,0.858"
         id="path76" />
      <path
         fill="#bdc5c9"
         d="m 76.85,97.347 -46.015,-30 -0.067,-0.71 45.41,29.736 V 77.094 l -0.199,-0.132 0.247,0.093 0.624,1.429 v 18.863"
         id="path78" />
      <path
         fill="#405253"
         d="M 30.637,65.924 V 47.675 l 45.016,29.7 V 95.4 L 30.637,65.924"
         id="path80" />
      <path
         d="M 30.112,46.7 V 66.208 L 76.179,96.373 V 77.094 L 75.707,76.783 30.112,46.7 m 1.05,1.952 43.966,29.008 V 94.43 L 31.163,65.64 V 48.652"
         fill="#e8e1da"
         id="path82" />
      <path
         fill="#e8e1da"
         d="M 33.503,67.835 30.613,65.87 V 47.832 l 2.89,1.966 v 18.037"
         id="path84" />
      <path
         fill="#e8e1da"
         d="m 47.494,77.008 -2.89,-1.965 V 57.005 l 2.89,1.966 v 18.037"
         id="path86" />
      <path
         fill="#e8e1da"
         d="M 61.485,86.181 58.594,84.216 V 66.178 l 2.89,1.966 v 18.037"
         id="path88" />
      <path
         fill="#e8e1da"
         d="M 75.475,95.355 72.584,93.388 V 75.351 l 2.891,1.966 v 18.037"
         id="path90" />
      <path
         fill="#b8c3c7"
         d="m 36.394,65.639 -2.89,1.546 V 50.203 l 2.89,1.922 v 13.514"
         id="path92" />
      <path
         fill="#fffffe"
         d="m 36.394,65.639 -2.89,1.546 11.098,7.292 0.002,-3.597 -8.21,-5.241"
         id="path94" />
      <path
         fill="#b8c3c7"
         d="m 50.385,74.85 -2.89,1.547 V 59.415 l 2.89,1.921 V 74.85"
         id="path96" />
      <path
         fill="#fffffe"
         d="m 50.385,74.85 -2.89,1.547 11.098,7.291 V 80.092 L 50.385,74.85"
         id="path98" />
      <path
         fill="#b8c3c7"
         d="m 64.366,84.081 -2.891,1.547 V 68.645 l 2.89,1.922 v 13.514"
         id="path100" />
      <path
         fill="#fffffe"
         d="m 64.366,84.081 -2.891,1.547 11.099,7.29 v -3.596 l -8.209,-5.241"
         id="path102" />
      <path
         fill="#e8e1da"
         d="m 44.819,117.275 -1.05,-0.671 v -13.68 h 1.05 v 14.352"
         id="path104" />
      <path
         fill="#e8e1da"
         d="m 59.516,126.393 -1.051,-0.673 v -15.9 h 1.05 v 16.573"
         id="path106" />
      <path
         fill="#e8e1da"
         d="m 46.463,116.379 -1.05,-0.672 v -15.9 h 1.05 v 16.572"
         id="path108" />
      <path
         fill="#e8e1da"
         d="m 57.772,123.802 -1.05,-0.673 v -15.9 h 1.05 v 16.573"
         id="path110" />
      <path
         fill="#e8e1da"
         d="m 40.676,68.37 -1.05,-0.672 v -13.68 h 1.05 V 68.37"
         id="path112" />
      <path
         fill="#e8e1da"
         d="m 54.668,77.678 -1.05,-0.672 V 63.325 h 1.05 v 14.352"
         id="path114" />
      <path
         fill="#e8e1da"
         d="m 68.831,86.985 -1.05,-0.672 v -13.68 h 1.05 v 14.353"
         id="path116" />
      <g
         transform="translate(80.886,63.961)"
         id="g123">
        <mask
           id="b"
           fill="#ffffff">
          <use
             xlink:href="#a"
             id="use118"
             x="0"
             y="0"
             width="100%"
             height="100%" />
        </mask>
        <path
           fill="#9da59c"
           mask="url(#b)"
           d="M 0.023,33.232 H 45.838 V 0.046 H 0.023 Z"
           id="path121" />
      </g>
      <path
         fill="#2d3532"
         d="M 81.309,77.655 126.325,51.741 V 70.095 L 81.309,95.681 V 77.655"
         id="path125" />
      <path
         d="m 126.85,50.803 -1.629,0.944 -43.965,25.31 -0.472,0.27 v 19.278 l 1.626,-0.918 43.965,-24.988 0.475,-0.272 V 50.803 m -1.05,1.875 V 69.765 L 81.834,94.755 V 77.985 L 125.8,52.678"
         fill="#cbc4be"
         id="path127" />
      <path
         fill="#cbc4be"
         d="m 123.459,71.769 2.89,-1.726 V 51.9 l -2.89,1.734 v 18.135"
         id="path129" />
      <path
         fill="#cbc4be"
         d="m 109.468,79.763 2.891,-1.72 v -18.11 l -2.89,1.726 v 18.104"
         id="path131" />
      <path
         fill="#cbc4be"
         d="m 95.478,87.722 2.89,-1.712 V 67.932 l -2.89,1.72 v 18.07"
         id="path133" />
      <path
         fill="#cbc4be"
         d="m 81.488,95.65 2.89,-1.706 V 75.899 l -2.89,1.712 V 95.65"
         id="path135" />
      <path
         fill="#9eaaae"
         d="m 120.568,69.311 2.891,1.805 V 54.04 l -2.89,1.648 v 13.623"
         id="path137" />
      <path
         fill="#e5e5e0"
         d="m 120.568,69.311 2.891,1.805 -11.099,6.359 -0.001,-3.611 8.21,-4.553"
         id="path139" />
      <path
         fill="#9eaaae"
         d="m 106.577,77.343 2.891,1.806 v -17.07 l -2.91,1.685 0.02,13.58"
         id="path141" />
      <path
         fill="#e5e5e0"
         d="m 106.577,77.343 2.891,1.806 -11.098,6.333 -0.002,-3.605 8.21,-4.534"
         id="path143" />
      <path
         fill="#9eaaae"
         d="m 92.597,85.362 2.89,1.807 V 70.131 l -2.89,1.674 v 13.557"
         id="path145" />
      <path
         fill="#e5e5e0"
         d="m 92.597,85.362 2.89,1.807 -11.098,6.307 -10e-4,-3.599 8.21,-4.515"
         id="path147" />
      <path
         fill="#cbc4be"
         d="m 116.286,71.685 1.05,-0.584 V 57.357 l -1.05,-0.09 v 14.418"
         id="path149" />
      <path
         fill="#cbc4be"
         d="m 102.295,79.803 1.05,-0.581 v -13.72 l -1.05,-0.09 v 14.391"
         id="path151" />
      <path
         fill="#cbc4be"
         d="m 88.131,87.873 1.05,-0.579 V 73.6 l -1.05,-0.092 v 14.365"
         id="path153" />
      <path
         fill="#f7f7f6"
         d="m 67.724,134.779 -0.93,-0.588 v -26.713 l 0.93,-0.531 v 27.832"
         id="path155" />
      <path
         fill="#e5e5e9"
         d="m 66.794,112.71 -0.399,-0.183 v -1.262 l -1.778,-0.841 v -1.697 l 2.177,-1.235 v 5.218"
         id="path157" />
      <path
         fill="#3c4c50"
         d="m 63.566,109.927 -0.58,-0.275 0.58,-0.33 v 0.605"
         id="path159" />
      <path
         fill="#d9d0cf"
         d="m 64.617,110.424 -1.05,-0.497 v -0.604 l 1.05,-0.596 v 1.697"
         id="path161" />
      <path
         fill="#e5e5e9"
         d="m 67.724,113.135 -0.93,-0.425 v -5.218 l 0.93,-0.528 v 6.172"
         id="path163" />
      <path
         d="m 80.909,124.248 v -0.658 l 1.501,-0.846 43.965,-24.99 0.35,-0.2 v 0.662 l -0.418,0.24 -43.966,24.984 -1.432,0.808 m 0.925,-6.834 v -1.11 l 43.456,-24.947 0.51,-0.294 v 5.758 -4.644 l -43.966,25.238"
         fill="#9da59c"
         id="path165" />
      <path
         fill="#2d3532"
         d="M 81.309,104.712 126.325,78.797 V 97.152 L 81.309,122.737 V 104.712"
         id="path167" />
      <path
         d="m 126.85,77.859 -1.629,0.944 -43.965,25.31 -0.472,0.27 v 19.278 l 1.626,-0.917 43.965,-24.99 0.475,-0.271 V 77.859 m -1.05,1.875 V 96.821 L 81.834,121.812 V 105.041 L 125.8,79.734"
         fill="#cbc4be"
         id="path169" />
      <path
         fill="#cbc4be"
         d="m 123.459,98.825 2.89,-1.726 V 78.957 l -2.89,1.732 v 18.136"
         id="path171" />
      <path
         fill="#cbc4be"
         d="m 109.468,106.819 2.891,-1.72 v -18.11 l -2.89,1.726 v 18.104"
         id="path173" />
      <path
         fill="#cbc4be"
         d="m 95.478,114.779 2.89,-1.713 V 94.988 l -2.89,1.72 v 18.071"
         id="path175" />
      <path
         fill="#cbc4be"
         d="M 81.488,122.705 84.378,121 v -18.045 l -2.89,1.712 v 18.038"
         id="path177" />
      <path
         fill="#9eaaae"
         d="m 120.568,96.366 2.891,1.806 V 81.095 l -2.89,1.688 v 13.582"
         id="path179" />
      <path
         fill="#e5e5e0"
         d="m 120.568,96.366 2.891,1.806 -11.099,6.36 -0.001,-3.612 8.21,-4.554"
         id="path181" />
      <path
         fill="#9eaaae"
         d="m 106.577,104.399 2.891,1.806 V 89.16 l -2.89,1.68 v 13.559"
         id="path183" />
      <path
         fill="#e5e5e0"
         d="m 106.577,104.399 2.891,1.806 -11.098,6.333 -0.002,-3.605 8.21,-4.534"
         id="path185" />
      <path
         fill="#9eaaae"
         d="m 92.597,112.419 2.89,1.806 V 97.21 l -2.89,1.674 v 13.535"
         id="path187" />
      <path
         fill="#e5e5e0"
         d="m 92.597,112.419 2.89,1.806 -11.098,6.306 -10e-4,-3.598 8.21,-4.514"
         id="path189" />
      <path
         fill="#cbc4be"
         d="m 116.286,98.741 1.05,-0.585 V 84.413 l -1.05,-0.09 v 14.418"
         id="path191" />
      <path
         fill="#cbc4be"
         d="m 102.295,106.859 1.05,-0.581 v -13.72 l -1.05,-0.09 v 14.391"
         id="path193" />
      <path
         fill="#cbc4be"
         d="m 88.131,114.929 1.05,-0.579 v -13.694 l -1.05,-0.092 v 14.365"
         id="path195" />
      <path
         fill="#c5c4be"
         d="m 35.241,112.958 1.804,-0.916 V 84.2 l -1.804,0.917 v 27.841"
         id="path197" />
      <path
         fill="#f7f7f6"
         d="m 35.241,112.958 -0.93,-0.588 V 86.056 l 0.93,-0.531 v 27.433"
         id="path199" />
      <path
         fill="#c5c4be"
         d="M 69.599,105.901 V 99.58 l -47.028,-7.765 33.028,22.028 14,-7.942"
         id="path201" />
      <path
         fill="#f7f7f6"
         d="M 55.626,104.719 22.571,85.495 v 6.32 l 33.028,22.029 0.027,-9.124"
         id="path203" />
      <path
         fill="#d9dbda"
         d="m 69.599,99.58 -33.426,-22.228 -14,7.943 33.426,22.227 14,-7.942"
         id="path205" />
      <path
         fill="#edf3f7"
         d="M 69.997,99.337 V 97.969 L 36.357,78.127 22.154,84.022 v 1.368 l 33.642,22.205 14.202,-8.259"
         id="path207" />
      <path
         fill="#c5c4be"
         d="m 36.356,78.327 19.44,28.1 -0.05,1.337 0.05,0.031 14.201,-8.259 V 98.168 L 36.357,78.327"
         id="path209" />
      <path
         fill="#fffffe"
         d="M 69.997,97.969 36.357,75.763 22.154,84.022 55.795,106.227 69.997,97.969"
         id="path211" />
      <path
         fill="#d0cfca"
         d="m 65.824,97.969 -29.673,-19.702 -9.824,5.754 29.674,19.702 9.823,-5.754"
         id="path213" />
      <path
         fill="#c1c1bc"
         d="m 36.151,78.267 -9.824,5.754 1.359,0.94 8.465,-4.958 v -1.736"
         id="path215" />
      <path
         fill="#f7f7f6"
         d="M 36.151,80.003 64.253,98.86 65.824,97.97 36.151,78.267 v 1.736"
         id="path217" />
      <path
         d="m 28.779,92.565 -0.14,-0.866 c -0.04,-0.242 -0.08,-0.539 -0.114,-0.777 l -0.007,-0.005 c -0.036,0.191 -0.072,0.441 -0.112,0.624 l -0.145,0.673 0.518,0.35 z m -0.598,0.209 -0.172,0.816 -0.548,-0.37 0.737,-3.134 0.697,0.474 0.698,4.1 -0.568,-0.384 -0.174,-1.049 z"
         fill="#129947"
         id="path219" />
      <path
         d="M 32.106,94.974 C 32.1,94.536 32.096,94.008 32.102,93.487 l -0.01,-0.007 c -0.079,0.408 -0.182,0.852 -0.277,1.21 l -0.3,1.208 -0.412,-0.279 -0.236,-1.56 a 32.155,32.155 0 0 1 -0.199,-1.546 l -0.007,-0.004 c -0.018,0.475 -0.034,1.023 -0.056,1.46 l -0.054,1.337 -0.489,-0.33 0.181,-3.498 0.708,0.481 0.217,1.355 c 0.069,0.465 0.137,0.962 0.185,1.418 l 0.01,0.007 c 0.07,-0.37 0.156,-0.79 0.236,-1.137 l 0.264,-1.022 0.693,0.472 0.086,3.665 -0.517,-0.349 -0.019,-1.394"
         fill="#129947"
         id="path221" />
      <path
         d="m 33.809,95.33 0.174,0.118 c 0.278,0.189 0.43,0.116 0.433,-0.148 0.004,-0.27 -0.13,-0.505 -0.37,-0.668 A 1.445,1.445 0 0 0 33.82,94.5 Z m -0.022,1.583 c 0.053,0.046 0.115,0.088 0.205,0.149 0.24,0.162 0.453,0.167 0.458,-0.208 0.006,-0.36 -0.204,-0.646 -0.468,-0.824 l -0.18,-0.123 z m -0.486,-3.306 c 0.14,0.052 0.423,0.213 0.687,0.393 0.324,0.22 0.522,0.403 0.69,0.672 0.162,0.243 0.277,0.567 0.272,0.889 -0.005,0.316 -0.13,0.53 -0.397,0.498 v 0.01 c 0.266,0.293 0.46,0.733 0.452,1.192 -0.004,0.322 -0.105,0.51 -0.254,0.591 -0.173,0.092 -0.458,0.016 -0.923,-0.298 a 5.274,5.274 0 0 1 -0.571,-0.438 z"
         fill="#129947"
         id="path223" />
      <path
         d="m 36.144,95.493 -0.033,2.042 c -0.01,0.61 0.137,1.024 0.408,1.207 0.278,0.188 0.435,-0.003 0.446,-0.628 l 0.036,-2.038 0.528,0.36 -0.035,1.983 c -0.02,1.09 -0.393,1.364 -1.003,0.953 -0.59,-0.397 -0.928,-1.127 -0.91,-2.26 l 0.03,-1.98 0.533,0.361"
         fill="#129947"
         id="path225" />
      <path
         fill="#129947"
         d="m 38.199,96.892 0.532,0.362 -0.055,2.855 0.93,0.628 -0.014,0.668 -1.46,-0.984 0.067,-3.53"
         id="path227" />
      <path
         d="m 41.304,101.045 -0.129,-0.84 C 41.138,99.968 41.102,99.68 41.072,99.448 l -0.007,-0.005 c -0.04,0.185 -0.08,0.426 -0.123,0.603 l -0.155,0.65 0.517,0.35 z m -0.607,0.192 -0.186,0.788 -0.548,-0.37 0.792,-3.025 0.696,0.474 0.644,3.99 -0.569,-0.384 -0.16,-1.02 z"
         fill="#129947"
         id="path229" />
      <path
         d="m 42.616,103.445 0.085,-3.49 0.62,0.42 0.454,1.608 c 0.13,0.46 0.257,0.988 0.35,1.45 l 0.011,0.007 c -0.022,-0.482 -0.02,-0.959 -0.006,-1.48 l 0.027,-1.016 0.487,0.331 -0.095,3.473 -0.554,-0.373 -0.465,-1.68 c -0.129,-0.466 -0.27,-1.02 -0.375,-1.506 l -0.01,-0.002 c 0.002,0.47 -0.004,0.966 -0.018,1.535 l -0.026,1.05 -0.486,-0.328"
         fill="#129947"
         id="path231" />
      <path
         d="m 46.934,106.257 c -0.1,0.006 -0.32,-0.064 -0.604,-0.256 -0.808,-0.544 -1.203,-1.57 -1.175,-2.558 0.033,-1.184 0.622,-1.455 1.333,-0.972 0.274,0.187 0.48,0.412 0.573,0.547 l -0.127,0.546 a 1.93,1.93 0 0 0 -0.441,-0.43 c -0.421,-0.285 -0.759,-0.133 -0.78,0.638 -0.02,0.694 0.244,1.318 0.716,1.637 0.16,0.107 0.338,0.175 0.444,0.184 l 0.061,0.664"
         fill="#129947"
         id="path233" />
      <path
         fill="#129947"
         d="m 48.924,106.212 -0.862,-0.582 -0.025,0.817 0.96,0.649 -0.02,0.637 -1.49,-1.005 0.107,-3.447 1.447,0.984 -0.02,0.637 -0.915,-0.62 -0.023,0.715 0.862,0.583 -0.021,0.632"
         id="path235" />
      <path
         fill="#b1b5b1"
         d="m 54.903,92.586 -2.76,-1.852 -0.007,-0.005 2.767,1.857"
         id="path237" />
      <path
         fill="#cdd2ce"
         d="m 54.903,92.586 -2.767,-1.857 -2.38,-1.65 -0.034,0.015 v -1.019 l 5.181,3.44 v 1.071"
         id="path239" />
      <path
         fill="#798b8d"
         d="m 42.289,69.386 -1.186,-0.74 -0.04,-0.027 1.992,-12.105 1.32,0.856 0.025,0.016 -2.111,12"
         id="path241" />
      <path
         fill="#cfd1d0"
         d="m 44.428,57.405 -0.053,-0.035 0.053,0.034"
         id="path243" />
      <path
         fill="#dce2e3"
         d="M 41.15,68.675 41.062,68.62 v -0.001 l 0.088,0.056"
         id="path245" />
      <path
         fill="#798b8d"
         d="m 57.422,79.335 -2.41,-1.549 1.989,-12.086 1.593,1.05 v 5.442 l -1.172,7.143"
         id="path247" />
      <path
         fill="#cfd1d0"
         d="m 58.594,66.751 -1.593,-1.051 0.003,-0.02 1.59,1.068 v 0.003"
         id="path249" />
      <path
         fill="#cfd1d0"
         d="m 58.594,72.192 v -5.444 l 0.027,0.009 -0.024,5.426 -0.003,0.01"
         id="path251" />
      <path
         fill="#798b8d"
         d="m 71.423,88.587 -1.038,-0.663 -0.263,-0.17 1.985,-12.044 0.377,0.205 0.1,0.066 v 5.597 l -1.16,7.009"
         id="path253" />
      <path
         fill="#cfd1d0"
         d="m 72.699,76.057 -0.215,-0.142 0.215,0.117 v 0.025"
         id="path255" />
      <path
         fill="#cfd1d0"
         d="M 72.584,81.578 V 75.97 l 0.081,0.02 -0.024,5.426 -0.057,0.162"
         id="path257" />
      <path
         fill="#dce2e3"
         d="m 71.422,88.592 -1.037,-0.668 1.038,0.663 v 0.005"
         id="path259" />
      <path
         d="m 55.988,103.734 -3.437,-2.301 3.45,2.29 1.673,-0.98 0.002,0.002 -1.688,0.989 m -10.727,-7.142 -2.197,-0.026 -1.59,-1.315 v -1.166 l -9.83,-6.533 13.617,9.04 m -18.93,-12.573 -0.036,-0.023 0.066,0.005 -0.03,0.018"
         fill="#e6e1ce"
         id="path261" />
      <path
         fill="#bab7a8"
         d="m 56.001,103.723 -3.45,-2.29 -7.23,-4.84 h -0.06 l -13.616,-9.041 -3.927,-2.61 1.228,-0.72 12.527,8.078 -0.054,-0.797 -3.405,-2.099 4.26,-2.028 4.048,3.238 3.386,-1.514 0.014,0.01 2.42,1.624 2.595,1.799 -1.82,0.804 2.352,1.52 -4.218,2.06 -1.488,-0.92 -1.25,0.711 9.36,6.035 -1.672,0.98"
         id="path263" />
      <path
         fill="#adaa9c"
         d="m 27.718,84.941 -1.387,-0.922 0.03,-0.018 2.57,0.212 0.015,0.01 -1.228,0.718"
         id="path265" />
      <path
         fill="#dbd7c6"
         d="m 49.739,89.128 -0.03,-0.02 0.03,-0.014 v 0.034"
         id="path267" />
      <path
         fill="#9fa092"
         d="m 52.142,90.734 -2.42,-1.624 2.414,1.62 0.006,0.004"
         id="path269" />
      <path
         fill="#b8b9ab"
         d="m 52.136,90.729 -2.414,-1.62 v -0.015 l 0.034,-0.015 2.38,1.65"
         id="path271" />
      <path
         fill="#13773e"
         d="m 50.028,86.82 -4.489,-2.964 v -5.421 l -4.643,-3.22 -2.323,1.484 2.49,4.267 -4.332,-2.955 -2.35,1.44 2.032,5.506 4.08,2.694 2.696,9.037 2.35,-1.442 v -5.16 l 2.139,4.187 2.35,-1.44 v -6.014"
         id="path273" />
      <path
         d="m 38.844,93.314 v -5.07 c 0,-0.1 -0.05,-0.192 -0.134,-0.248 l -4.03,-2.69 v -5.294 l 3.699,2.468 a 0.298,0.298 0 0 0 0.465,-0.249 v -5.002 l 4.046,2.803 v 5.265 c 0,0.1 0.05,0.194 0.134,0.25 l 4.355,2.875 v 5.297 l -4.025,-2.658 a 0.3,0.3 0 0 0 -0.464,0.25 v 4.807 l -4.046,-2.804"
         fill="#1fa848"
         id="path275" />
      <path
         d="m 38.545,76.658 v 5.573 l -4.164,-2.778 v 6.013 l 4.164,2.779 v 5.226 l 4.644,3.218 V 91.31 l 4.489,2.964 v -6.013 l -4.49,-2.964 v -5.42 l -4.643,-3.22 z m 0.598,1.141 3.448,2.39 v 5.108 c 0,0.201 0.1,0.389 0.269,0.5 l 4.22,2.786 v 4.58 l -3.562,-2.351 a 0.597,0.597 0 0 0 -0.927,0.498 v 4.237 l -3.448,-2.39 v -4.912 c 0,-0.2 -0.1,-0.387 -0.267,-0.498 l -3.897,-2.6 V 80.57 l 3.234,2.159 a 0.598,0.598 0 0 0 0.93,-0.498 z"
         fill="#fffffe"
         id="path277" />
      <path
         fill="#1fa848"
         d="m 47.678,88.261 1.51,-0.811 -4.488,-2.964 -1.511,0.811 4.489,2.964"
         id="path279" />
      <path
         fill="#1fa848"
         d="m 43.22,79.861 2.32,-1.426 -4.644,-3.219 -2.323,1.484 4.647,3.161"
         id="path281" />
      <path
         fill="#1fa848"
         d="m 38.563,82.351 -0.012,-3.106 -1.82,-1.233 -2.366,1.447 4.198,2.892"
         id="path283" />
      <path
         fill="#d4dcdd"
         d="m 80.779,77.347 -0.036,-0.999 45.301,-26.095 0.806,0.55 -12.633,7.28 -32.961,18.972 -0.472,0.27 v 0.019 l -0.005,0.002"
         id="path285" />
      <path
         fill="#e1dcd6"
         d="m 80.784,77.345 v -0.018 l 0.472,-0.27 32.96,-18.975 -33.431,19.263"
         id="path287" />
      <path
         fill="#d4dcdd"
         d="m 80.754,104.399 -0.036,-1 45.302,-26.094 0.806,0.55 -46.072,26.544"
         id="path289" />
      <path
         d="m 29.944,126.17 -0.06,-0.001 -5.334,-0.3 a 1.0516563,1.0516563 0 1 1 0.118,-2.1 l 5.335,0.3 a 1.052,1.052 0 0 1 -0.059,2.101"
         fill="#645f65"
         id="path291" />
      <path
         d="m 53.309,141.798 -0.06,-0.002 -5.334,-0.301 a 1.0516563,1.0516563 0 1 1 0.118,-2.1 l 5.335,0.3 a 1.053,1.053 0 0 1 -0.059,2.103"
         fill="#645f65"
         id="path293" />
      <path
         d="m 25.294,113.785 c 0.237,-0.202 0.391,-0.5 0.391,-0.837 a 1.1015,1.1015 0 1 0 -2.203,0 c 0,0.337 0.154,0.635 0.392,0.837 -0.47,0.254 -0.793,0.745 -0.793,1.317 v 9.465 c 0,0.83 0.673,1.253 1.503,1.253 0.83,0 1.503,-0.423 1.503,-1.253 v -9.465 c 0,-0.573 -0.323,-1.064 -0.793,-1.318"
         fill="#444240"
         id="path295" />
      <path
         d="m 48.801,129.479 c 0.237,-0.202 0.392,-0.5 0.392,-0.837 a 1.102,1.102 0 1 0 -2.204,0 c 0,0.337 0.154,0.635 0.393,0.837 -0.47,0.254 -0.793,0.745 -0.793,1.316 v 9.466 c 0,0.83 0.672,1.253 1.502,1.253 0.83,0 1.503,-0.423 1.503,-1.253 v -9.466 c 0,-0.571 -0.324,-1.063 -0.793,-1.316"
         fill="#444240"
         id="path297" />
      <path
         d="m 78.326,20.157 c -11.825,0 -21.41,6.014 -21.41,13.434 0,7.42 9.585,13.435 21.41,13.435 11.825,0 21.41,-6.015 21.41,-13.435 0,-7.42 -9.585,-13.434 -21.41,-13.434 m 5.618,13.568 6.669,4.403 -5.676,3.358 -6.706,-4.427 -7.916,4.62 -5.704,-3.745 7.933,-4.63 -6.587,-4.349 5.676,-3.357 6.624,4.373 7.934,-4.63 5.704,3.745 -7.951,4.64"
         fill="#1fa848"
         id="path299" />
      <path
         fill="#fffefe"
         d="m 70.315,41.678 -5.704,-3.744 7.933,-4.63 -6.587,-4.349 5.676,-3.357 6.624,4.373 7.934,-4.63 5.704,3.745 -7.951,4.64 6.669,4.402 -5.676,3.358 -6.706,-4.427 -7.916,4.62"
         id="path301" />
    </g>
  </g>
</svg>
